<svg width="128" height="128" viewBox="50 50 100 100" fill="none" xmlns="http://www.w3.org/2000/svg">
  <path d="M100 150C127.613 150 150 127.615 150 100C150 72.3849 127.613 50 100 50C72.387 50 50 72.3849 50 100C50 127.615 72.3849 150 100 150Z" fill="#FF00AA"/>
  <path d="M90.9479 103.006L91.855 87.9079L117.152 89.3971L90.9479 103.006ZM129.954 92.1142C129.954 87.3428 128.408 83.5804 125.285 80.8591C122.16 78.1377 117.658 76.7611 111.744 76.7611H75.1232L70.9232 124.94H88.764L89.9069 111.468H108.689C115.24 111.468 120.447 109.721 124.246 106.261C128.042 102.8 129.958 98.0625 129.958 92.1163" fill="white"/>
</svg>
